<svg xmlns="http://www.w3.org/2000/svg" width="69" height="57" viewBox="0 0 69 57">
  <defs>
    <linearGradient id="logomark-a" x1="50.01%" x2="50.01%" y1="-.08%" y2="99.999%">
      <stop offset="0%" stop-color="#FF1DD9"/>
      <stop offset="100%" stop-color="#FF4284"/>
    </linearGradient>
    <linearGradient id="logomark-b" x1="49.992%" x2="49.992%" y1="0%" y2="100.08%">
      <stop offset="0%" stop-color="#0150F7"/>
      <stop offset="100%" stop-color="#4BAEFF"/>
    </linearGradient>
  </defs>
  <g fill="none">
    <path fill="url(#logomark-a)" d="M51.89,28.3701531 C51.8839788,24.7102544 49.934422,21.3289919 46.77,19.4901531 L44,17.8801531 L34.52,23.3501531 L42,27.7001531 L42,27.7001531 C42.2388415,27.8380042 42.3842701,28.0944177 42.38,28.3701531 C42.3721119,28.632124 42.2280435,28.8709743 42,29.0001531 L10.63,47.1601531 C10.5144714,47.2266651 10.3833028,47.2611832 10.25,47.2601531 C10.0467084,47.2628282 9.85082049,47.1839395 9.70612267,47.0411209 C9.56142486,46.8983023 9.4799824,46.7034623 9.48,46.5001531 L9.48,10.2401531 C9.47986859,9.96549204 9.62420458,9.7110049 9.86,9.57015309 C9.98039267,9.50678396 10.1139692,9.47253357 10.25,9.47015309 C10.3841561,9.47263212 10.5152645,9.51058456 10.63,9.58015309 L25,17.8801531 L34.48,12.4101531 L15.36,1.41015309 C12.1967991,-0.409075989 8.3049381,-0.409446053 5.1413913,1.40918144 C1.97784449,3.22780893 0.0196933495,6.59117426 -1.0658141e-14,10.2401531 L-1.0658141e-14,46.5001531 C0.00344239681,50.1593712 1.95735058,53.5392287 5.12667362,55.3682395 C8.29599666,57.1972503 12.1999938,57.1979796 15.37,55.3701531 L46.77,37.2401531 C49.9358403,35.4076013 51.8865623,32.0281278 51.89,28.3701531 Z"/>
    <path fill="url(#logomark-b)" d="M63.86,1.37015309 C60.6875375,-0.456717697 56.7824625,-0.456717697 53.61,1.37015309 L22.21,19.4901531 C19.0403567,21.321599 17.0880479,24.7044382 17.0880479,28.3651531 C17.0880479,32.0258679 19.0403567,35.4087071 22.21,37.2401531 L25,38.8601531 L34.48,33.3901531 L27,29.0001531 C26.7627488,28.8656137 26.617237,28.6128825 26.62,28.3401531 C26.6263852,28.075148 26.7703878,27.8326172 27,27.7001531 L58.35,9.57015309 C58.4672523,9.50794139 58.5973135,9.47371475 58.73,9.47015309 C58.8674894,9.47134207 59.0021526,9.509324 59.12,9.58015309 C59.3572512,9.71469252 59.502763,9.96742367 59.5,10.2401531 L59.5,46.5001531 C59.5000176,46.7034623 59.4185751,46.8983023 59.2738773,47.0411209 C59.1291795,47.1839395 58.9332916,47.2628282 58.73,47.2601531 C58.5966972,47.2611832 58.4655286,47.2266651 58.35,47.1601531 L44,38.8601531 L34.52,44.3301531 L53.64,55.3301531 C56.8032009,57.1493822 60.6950619,57.1497522 63.8586087,55.3311247 C67.0221555,53.5124973 68.9803067,50.1491319 69,46.5001531 L69,10.2401531 C68.9924333,6.57805647 67.033538,3.19762819 63.86,1.37015309 Z"/>
  </g>
</svg>
